HIERARCHY
ROOT Hips
{
  OFFSET 0.0000 0.0000 0.0000
  CHANNELS 6 Xposition Yposition Zposition Zrotation Xrotation Yrotation
  JOINT Chest
  {
    OFFSET -0.1728 10.2870 0.1254
    CHANNELS 3 Zrotation Xrotation Yrotation
    JOINT Chest2
    {
      OFFSET 0.3229 15.8173 -2.6440
      CHANNELS 3 Zrotation Xrotation Yrotation
      JOINT LeftCollar
      {
        OFFSET -0.0683 16.8828 0.2989
        CHANNELS 3 Zrotation Xrotation Yrotation
        JOINT LeftShoulder
        {
          OFFSET 16.0110 -3.0750 2.0528
          CHANNELS 3 Zrotation Xrotation Yrotation
          JOINT LeftElbow
          {
            OFFSET 2.6153 -25.4187 1.7231
            CHANNELS 3 Zrotation Xrotation Yrotation
            JOINT LeftWrist
            {
              OFFSET 2.3595 -22.4741 1.0488
              CHANNELS 3 Zrotation Xrotation Yrotation
              End Site
              {
                  OFFSET 1.4871 -13.9919 1.1523
              }
            }
          }
        }
      }
      JOINT RightCollar
      {
        OFFSET -0.0683 16.8828 0.2989
        CHANNELS 3 Zrotation Xrotation Yrotation
        JOINT RightShoulder
        {
          OFFSET -16.3743 -2.4390 2.0841
          CHANNELS 3 Zrotation Xrotation Yrotation
          JOINT RightElbow
          {
            OFFSET -2.6865 -25.0857 1.2959
            CHANNELS 3 Zrotation Xrotation Yrotation
            JOINT RightWrist
            {
              OFFSET -2.3810 -22.8348 1.0329
              CHANNELS 3 Zrotation Xrotation Yrotation
              End Site
              {
                  OFFSET -1.4652 -14.7234 1.0705
              }
            }
          }
        }
      }
      JOINT Neck
      {
        OFFSET -0.0683 16.8828 0.2989
        CHANNELS 3 Zrotation Xrotation Yrotation
        JOINT Head
        {
          OFFSET 0.1300 11.4121 4.7143
          CHANNELS 3 Zrotation Xrotation Yrotation
          End Site
          {
              OFFSET 0.0452 18.0438 0.3379
          }
        }
      }
    }
  }
  JOINT LeftHip
  {
    OFFSET 9.3186 -0.0408 3.5432
    CHANNELS 3 Zrotation Xrotation Yrotation
    JOINT LeftKnee
    {
      OFFSET -0.5435 -48.8357 0.3144
      CHANNELS 3 Zrotation Xrotation Yrotation
      JOINT LeftAnkle
      {
        OFFSET 0.2027 -38.4920 -4.2946
        CHANNELS 3 Zrotation Xrotation Yrotation
        End Site
        {
            OFFSET 1.1879 -7.4484 17.8063
        }
      }
    }
  }
  JOINT RightHip
  {
    OFFSET -10.0712 -0.0749 3.1483
    CHANNELS 3 Zrotation Xrotation Yrotation
    JOINT RightKnee
    {
      OFFSET 0.3157 -48.5179 0.1055
      CHANNELS 3 Zrotation Xrotation Yrotation
      JOINT RightAnkle
      {
        OFFSET -1.1248 -38.4399 -3.4305
        CHANNELS 3 Zrotation Xrotation Yrotation
        End Site
        {
            OFFSET -1.3336 -7.3741 17.3830
        }
      }
    }
  }
}
MOTION
Frames:	13
Frame Time:	0.033333
61.0475 81.3293 378.8512 41.90 0.94 -68.60 -18.35 -12.41 -8.02 -18.28 -12.48 -7.99 -0.18 -0.70 0.26 150.26 -7.33 88.84 2.28 -74.13 -9.86 16.24 -15.80 41.22 -0.01 -0.80 0.01 -115.49 -41.67 -6.94 -23.42 -4.95 -8.86 8.89 -7.19 -12.94 -6.38 -20.41 -17.20 -4.06 -13.41 -16.51 -34.31 -71.72 -25.55 -2.83 64.76 4.81 0.01 -30.89 -2.90 -62.03 -84.38 -39.99 150.47 86.56 -151.90 0.11 11.06 -11.58 
61.7446 81.2030 378.9910 42.13 0.37 -72.04 -18.64 -11.39 -9.02 -18.57 -11.46 -8.99 -0.18 -0.70 0.26 149.68 -5.75 88.25 2.78 -73.25 -9.36 16.66 -16.17 41.48 -0.01 -0.80 0.01 -106.38 -42.68 -3.84 -27.24 -3.34 -10.13 9.00 -6.71 -12.26 -5.08 -20.02 -17.74 -2.71 -13.04 -17.05 -29.49 -73.64 -21.12 -3.12 65.77 5.14 -0.02 -31.38 -1.07 -67.08 -86.37 -46.18 141.43 87.32 -142.85 0.15 11.78 -10.01 
62.4231 81.1439 379.1165 42.67 0.12 -75.42 -18.73 -10.51 -9.80 -18.65 -10.58 -9.77 -0.18 -0.70 0.26 148.65 -4.44 87.68 3.31 -72.18 -8.82 16.86 -15.94 40.37 -0.01 -0.80 0.01 -97.30 -43.87 0.07 -30.59 -2.04 -10.81 9.12 -6.13 -11.45 -4.03 -19.71 -18.33 -1.58 -12.75 -17.64 -23.90 -75.77 -16.24 -3.41 66.75 5.46 -0.10 -31.79 0.70 -91.25 -88.24 -71.73 121.96 88.06 -123.37 0.17 12.55 -8.30 
63.0891 81.1092 379.2290 43.34 -0.03 -78.77 -18.73 -9.68 -10.54 -18.65 -9.76 -10.52 -0.18 -0.70 0.26 147.39 -3.19 87.04 3.80 -71.05 -8.32 16.99 -15.42 38.63 -0.01 -0.80 0.01 -88.08 -44.84 4.89 -33.51 -0.84 -11.13 9.25 -5.46 -10.53 -3.00 -19.40 -18.91 -0.49 -12.46 -18.22 -16.62 -77.85 -9.81 -3.65 67.62 5.73 -0.23 -32.08 2.44 -171.92 -88.42 -153.86 85.61 88.38 -87.00 0.19 13.31 -6.51 
63.7499 81.0803 379.3342 44.11 -0.14 -82.06 -18.65 -8.93 -11.30 -18.58 -9.01 -11.28 -0.18 -0.70 0.26 146.02 -1.95 86.30 4.26 -69.86 -7.85 17.14 -14.80 36.70 -0.01 -0.80 0.01 -78.71 -45.25 10.38 -36.17 0.35 -11.24 9.37 -4.70 -9.49 -2.06 -19.11 -19.48 0.51 -12.19 -18.79 -6.83 -79.77 -0.93 -3.86 68.48 5.97 -0.36 -32.34 4.11 158.06 -86.62 174.67 50.66 87.95 -52.04 0.18 13.93 -4.67 
64.3969 81.0745 379.4325 45.13 -0.15 -85.27 -18.45 -8.30 -12.05 -18.38 -8.37 -12.03 -0.18 -0.70 0.26 144.47 -0.85 85.35 4.73 -68.47 -7.36 17.37 -13.89 34.07 -0.01 -0.80 0.01 -69.61 -44.47 15.90 -38.32 0.74 -11.05 9.51 -3.82 -8.28 -1.18 -18.85 -20.02 1.45 -11.96 -19.33 6.85 -81.53 11.70 -4.06 69.30 6.19 -0.51 -32.53 5.76 150.85 -84.49 165.97 31.32 87.01 -32.67 0.15 14.30 -2.76 
65.0113 81.1205 379.5248 46.74 0.06 -88.29 -17.97 -7.95 -12.72 -17.89 -8.02 -12.70 -0.18 -0.70 0.26 142.51 -0.13 84.07 5.28 -66.57 -6.79 17.82 -12.37 30.03 -0.01 -0.80 0.01 -61.99 -41.47 20.01 -39.35 -1.21 -10.43 9.67 -2.64 -6.67 -0.56 -18.74 -20.50 2.13 -11.87 -19.80 27.48 -83.17 30.99 -4.26 70.09 6.41 -0.69 -32.67 7.29 149.45 -82.17 162.97 20.74 85.71 -22.08 0.10 14.15 -0.71 
65.5866 81.2242 379.6156 49.07 0.50 -91.12 -17.18 -7.90 -13.28 -17.11 -7.97 -13.25 -0.18 -0.70 0.26 140.05 0.08 82.40 5.88 -64.11 -6.17 18.72 -10.16 24.21 -0.01 -0.80 0.01 -56.70 -35.82 21.36 -38.97 -6.41 -9.34 9.84 -1.17 -4.67 -0.20 -18.78 -20.93 2.54 -11.93 -20.22 60.34 -84.05 62.16 -4.48 70.83 6.64 -0.91 -32.68 8.70 150.02 -79.70 161.80 14.62 84.14 -15.94 0.05 13.43 1.49 
66.1359 81.3583 379.7153 52.01 1.06 -93.80 -16.10 -8.12 -13.65 -16.02 -8.19 -13.63 -0.18 -0.70 0.26 137.14 -0.19 80.61 6.45 -61.23 -5.57 20.12 -7.62 17.17 -0.01 -0.80 0.01 -53.22 -28.09 19.84 -37.51 -14.40 -7.89 9.98 0.56 -2.30 -0.17 -19.04 -21.38 2.62 -12.21 -20.65 96.65 -82.92 96.53 -4.73 71.54 6.90 -1.17 -32.61 10.00 151.61 -77.04 161.53 10.86 82.38 -12.15 0.03 12.21 3.75 
66.6716 81.4775 379.8439 55.29 1.55 -96.41 -14.80 -8.46 -13.78 -14.73 -8.53 -13.76 -0.18 -0.70 0.26 133.83 -1.11 79.14 6.92 -58.28 -5.07 21.98 -5.11 9.51 -0.01 -0.80 0.01 -50.64 -18.97 15.64 -35.37 -24.19 -6.21 10.07 2.38 0.19 -0.54 -19.56 -21.96 2.32 -12.76 -21.18 119.67 -79.95 117.55 -4.99 72.24 7.16 -1.42 -32.46 11.27 153.34 -74.28 161.35 8.50 80.59 -9.77 0.05 10.72 5.97 
67.1819 81.5360 380.0263 58.77 1.91 -98.82 -13.31 -8.85 -13.61 -13.23 -8.92 -13.57 -0.18 -0.70 0.26 130.12 -3.09 78.38 7.30 -55.41 -4.66 24.26 -2.86 1.58 -0.01 -0.80 0.01 -48.65 -8.54 8.68 -32.69 -34.82 -4.44 10.08 4.22 2.72 -1.43 -20.40 -22.65 1.53 -13.62 -21.79 132.51 -76.19 128.48 -5.30 72.97 7.49 -1.60 -32.34 12.36 155.33 -71.43 161.45 7.00 78.91 -8.24 0.07 8.98 8.02 
67.6367 81.5014 380.2686 62.28 2.14 -100.92 -11.68 -9.22 -13.25 -11.61 -9.28 -13.22 -0.18 -0.70 0.26 126.11 -6.46 78.16 7.61 -52.62 -4.32 26.97 -0.97 -6.24 -0.01 -0.80 0.01 -47.09 3.15 -0.29 -29.08 -44.77 -2.36 10.01 6.05 5.24 -2.71 -21.46 -23.23 0.33 -14.70 -22.30 140.60 -72.19 134.84 -5.68 73.74 7.87 -1.71 -32.25 13.25 157.32 -68.66 161.74 6.00 77.43 -7.23 0.07 6.94 9.88 
68.0137 81.3628 380.5417 65.74 2.30 -102.50 -10.07 -9.51 -12.97 -10.00 -9.58 -12.93 -0.18 -0.70 0.26 122.34 -10.74 77.52 7.92 -49.38 -3.98 30.03 0.35 -12.92 -0.01 -0.80 0.01 -45.80 15.28 -8.96 -24.31 -51.60 0.37 9.85 7.87 7.79 -3.95 -22.46 -23.27 -0.89 -15.71 -22.27 146.51 -68.30 139.24 -6.18 74.55 8.38 -1.75 -32.21 13.83 159.33 -66.04 162.46 5.38 76.27 -6.59 0.06 4.49 11.48 
